<svg width="17" height="17" viewBox="0 0 17 17" fill="none" xmlns="http://www.w3.org/2000/svg">
<path d="M14.875 4.25H12.75C12.75 3.12283 12.3022 2.04183 11.5052 1.2448C10.7082 0.447767 9.62717 0 8.5 0C7.37283 0 6.29183 0.447767 5.4948 1.2448C4.69777 2.04183 4.25 3.12283 4.25 4.25H2.125C1.56141 4.25 1.02091 4.47388 0.622398 4.8724C0.223883 5.27091 0 5.81141 0 6.375L0 13.4583C0.00112473 14.3973 0.374625 15.2975 1.03857 15.9614C1.70252 16.6254 2.6027 16.9989 3.54167 17H13.4583C14.3973 16.9989 15.2975 16.6254 15.9614 15.9614C16.6254 15.2975 16.9989 14.3973 17 13.4583V6.375C17 5.81141 16.7761 5.27091 16.3776 4.8724C15.9791 4.47388 15.4386 4.25 14.875 4.25ZM8.5 1.41667C9.25145 1.41667 9.97212 1.71518 10.5035 2.24653C11.0348 2.77788 11.3333 3.49855 11.3333 4.25H5.66667C5.66667 3.49855 5.96518 2.77788 6.49653 2.24653C7.02788 1.71518 7.74855 1.41667 8.5 1.41667V1.41667ZM15.5833 13.4583C15.5833 14.0219 15.3594 14.5624 14.9609 14.9609C14.5624 15.3594 14.0219 15.5833 13.4583 15.5833H3.54167C2.97808 15.5833 2.43758 15.3594 2.03906 14.9609C1.64055 14.5624 1.41667 14.0219 1.41667 13.4583V6.375C1.41667 6.18714 1.49129 6.00697 1.62413 5.87413C1.75697 5.74129 1.93714 5.66667 2.125 5.66667H4.25V7.08333C4.25 7.27119 4.32463 7.45136 4.45747 7.5842C4.5903 7.71704 4.77047 7.79167 4.95833 7.79167C5.14619 7.79167 5.32636 7.71704 5.4592 7.5842C5.59204 7.45136 5.66667 7.27119 5.66667 7.08333V5.66667H11.3333V7.08333C11.3333 7.27119 11.408 7.45136 11.5408 7.5842C11.6736 7.71704 11.8538 7.79167 12.0417 7.79167C12.2295 7.79167 12.4097 7.71704 12.5425 7.5842C12.6754 7.45136 12.75 7.27119 12.75 7.08333V5.66667H14.875C15.0629 5.66667 15.243 5.74129 15.3759 5.87413C15.5087 6.00697 15.5833 6.18714 15.5833 6.375V13.4583Z" fill="#2D3B29"/>
</svg>
