<svg width="22" height="22" viewBox="0 0 22 22" fill="none" xmlns="http://www.w3.org/2000/svg">
<path fill-rule="evenodd" clip-rule="evenodd" d="M15.5835 4.14038C14.2268 3.23385 12.6317 2.75 11 2.75C8.81394 2.7564 6.71924 3.62765 5.17345 5.17344C3.62766 6.71923 2.75641 8.81393 2.75 11C2.75 12.6317 3.23386 14.2267 4.14038 15.5835C5.0469 16.9402 6.33538 17.9976 7.84287 18.622C9.35036 19.2464 11.0092 19.4098 12.6095 19.0915C14.2098 18.7731 15.6799 17.9874 16.8336 16.8336C17.9874 15.6798 18.7732 14.2098 19.0915 12.6095C19.4098 11.0092 19.2464 9.35035 18.622 7.84286C17.9976 6.33537 16.9402 5.0469 15.5835 4.14038ZM5.65264 2.99711C7.23546 1.9395 9.09636 1.375 11 1.375C13.5504 1.38247 15.9942 2.39893 17.7977 4.20235C19.6011 6.00577 20.6175 8.44959 20.625 11C20.625 12.9036 20.0605 14.7645 19.0029 16.3474C17.9453 17.9302 16.4421 19.1638 14.6833 19.8923C12.9246 20.6208 10.9893 20.8114 9.12226 20.4401C7.25519 20.0687 5.54018 19.152 4.1941 17.8059C2.84802 16.4598 1.93133 14.7448 1.55995 12.8777C1.18856 11.0107 1.37917 9.07541 2.10766 7.31667C2.83616 5.55793 4.06982 4.05471 5.65264 2.99711ZM14.4375 6.875V8.25H8.9375V10.3125H13.0625C13.4271 10.3129 13.7766 10.4578 14.0344 10.7156C14.2922 10.9734 14.4371 11.3229 14.4375 11.6875V13.75C14.4371 14.1145 14.2921 14.464 14.0343 14.7218C13.7765 14.9796 13.427 15.1246 13.0625 15.125H11.6875V17.1875H10.3125V15.125H7.5625V13.75H13.0625V11.6875H8.9375C8.57294 11.6871 8.22341 11.5422 7.96563 11.2844C7.70785 11.0266 7.56286 10.6771 7.5625 10.3125V8.25C7.56286 7.88544 7.70785 7.53591 7.96563 7.27813C8.22341 7.02035 8.57294 6.87536 8.9375 6.875H10.3125V4.8125H11.6875V6.875H14.4375Z" fill="#2D3B29"/>
</svg>
