<svg width="17" height="17" viewBox="0 0 17 17" fill="none" xmlns="http://www.w3.org/2000/svg">
<g clip-path="url(#clip0_1_5181)">
<path d="M14.1667 0H2.83333C2.08189 0 1.36122 0.298511 0.829864 0.829864C0.298511 1.36122 0 2.08189 0 2.83333L0 11.3333C0 12.0848 0.298511 12.8054 0.829864 13.3368C1.36122 13.8682 2.08189 14.1667 2.83333 14.1667H4.8875L8.04029 16.8321C8.16819 16.9404 8.33032 16.9998 8.49787 16.9998C8.66543 16.9998 8.82756 16.9404 8.95546 16.8321L12.1125 14.1667H14.1667C14.9181 14.1667 15.6388 13.8682 16.1701 13.3368C16.7015 12.8054 17 12.0848 17 11.3333V2.83333C17 2.08189 16.7015 1.36122 16.1701 0.829864C15.6388 0.298511 14.9181 0 14.1667 0V0ZM15.5833 11.3333C15.5833 11.7091 15.4341 12.0694 15.1684 12.3351C14.9027 12.6007 14.5424 12.75 14.1667 12.75H12.1125C11.7777 12.7501 11.4537 12.8688 11.198 13.085L8.5 15.3638L5.80337 13.085C5.54736 12.8685 5.22282 12.7498 4.8875 12.75H2.83333C2.45761 12.75 2.09728 12.6007 1.8316 12.3351C1.56592 12.0694 1.41667 11.7091 1.41667 11.3333V2.83333C1.41667 2.45761 1.56592 2.09728 1.8316 1.8316C2.09728 1.56592 2.45761 1.41667 2.83333 1.41667H14.1667C14.5424 1.41667 14.9027 1.56592 15.1684 1.8316C15.4341 2.09728 15.5833 2.45761 15.5833 2.83333V11.3333Z" fill="#2D3B29"/>
<path d="M4.95833 4.95844H8.5C8.68786 4.95844 8.86803 4.88381 9.00087 4.75098C9.13371 4.61814 9.20833 4.43797 9.20833 4.25011C9.20833 4.06225 9.13371 3.88208 9.00087 3.74924C8.86803 3.61641 8.68786 3.54178 8.5 3.54178H4.95833C4.77047 3.54178 4.5903 3.61641 4.45747 3.74924C4.32463 3.88208 4.25 4.06225 4.25 4.25011C4.25 4.43797 4.32463 4.61814 4.45747 4.75098C4.5903 4.88381 4.77047 4.95844 4.95833 4.95844Z" fill="#2D3B29"/>
<path d="M12.0417 6.375H4.95833C4.77047 6.375 4.5903 6.44963 4.45747 6.58247C4.32463 6.7153 4.25 6.89547 4.25 7.08333C4.25 7.27119 4.32463 7.45136 4.45747 7.5842C4.5903 7.71704 4.77047 7.79166 4.95833 7.79166H12.0417C12.2295 7.79166 12.4097 7.71704 12.5425 7.5842C12.6754 7.45136 12.75 7.27119 12.75 7.08333C12.75 6.89547 12.6754 6.7153 12.5425 6.58247C12.4097 6.44963 12.2295 6.375 12.0417 6.375Z" fill="#2D3B29"/>
<path d="M12.0417 9.20823H4.95833C4.77047 9.20823 4.5903 9.28286 4.45747 9.4157C4.32463 9.54854 4.25 9.7287 4.25 9.91657C4.25 10.1044 4.32463 10.2846 4.45747 10.4174C4.5903 10.5503 4.77047 10.6249 4.95833 10.6249H12.0417C12.2295 10.6249 12.4097 10.5503 12.5425 10.4174C12.6754 10.2846 12.75 10.1044 12.75 9.91657C12.75 9.7287 12.6754 9.54854 12.5425 9.4157C12.4097 9.28286 12.2295 9.20823 12.0417 9.20823Z" fill="#2D3B29"/>
</g>
<defs>
<clipPath id="clip0_1_5181">
<rect width="17" height="17" fill="white"/>
</clipPath>
</defs>
</svg>
