<svg width="17" height="17" viewBox="0 0 17 17" fill="none" xmlns="http://www.w3.org/2000/svg">
<g clip-path="url(#clip0_1_5148)">
<path d="M14.5402 2.98698L10.2711 0.521981C9.73233 0.212172 9.12172 0.0491257 8.50024 0.0491257C7.87877 0.0491257 7.26816 0.212172 6.72941 0.521981L2.46029 2.98698C1.92257 3.29859 1.47604 3.74584 1.16529 4.28405C0.854547 4.82226 0.69047 5.43259 0.689453 6.05407V10.9841C0.690489 11.6056 0.854567 12.2161 1.1653 12.7544C1.47604 13.2927 1.92257 13.7401 2.46029 14.0519L6.72941 16.5161C7.26809 16.8262 7.87872 16.9893 8.50024 16.9893C9.12177 16.9893 9.7324 16.8262 10.2711 16.5161L14.5402 14.0519C15.0779 13.7401 15.5244 13.2927 15.8352 12.7544C16.1459 12.2161 16.31 11.6056 16.311 10.9841V6.05407C16.31 5.43259 16.1459 4.82226 15.8352 4.28405C15.5245 3.74584 15.0779 3.29859 14.5402 2.98698V2.98698ZM7.43774 1.74952C7.76079 1.56302 8.12723 1.46483 8.50024 1.46483C8.87326 1.46483 9.2397 1.56302 9.56274 1.74952L13.8319 4.21381C13.9401 4.28224 14.0418 4.36049 14.1357 4.44756L9.74904 6.97986C9.36926 7.19879 8.93861 7.31403 8.50024 7.31403C8.06188 7.31403 7.63123 7.19879 7.25145 6.97986L2.86474 4.44756C2.95865 4.36049 3.06037 4.28224 3.16862 4.21381L7.43774 1.74952ZM3.16862 12.8243C2.84576 12.6373 2.5777 12.3687 2.39123 12.0455C2.20477 11.7223 2.10645 11.3558 2.10612 10.9826V6.05407C2.11104 5.92645 2.12788 5.79958 2.15641 5.67511L6.54312 8.2074C6.93054 8.42777 7.35295 8.57992 7.79191 8.65719V15.4352C7.66956 15.3978 7.55098 15.3489 7.43774 15.2893L3.16862 12.8243ZM14.8944 10.9826C14.894 11.3558 14.7957 11.7223 14.6093 12.0455C14.4228 12.3687 14.1547 12.6373 13.8319 12.8243L9.56274 15.2893C9.44951 15.3489 9.33093 15.3978 9.20858 15.4352V8.65719C9.64754 8.57992 10.07 8.42777 10.4574 8.2074L14.8441 5.67511C14.8726 5.79958 14.8895 5.92645 14.8944 6.05407V10.9826Z" fill="#2D3B29"/>
</g>
<defs>
<clipPath id="clip0_1_5148">
<rect width="17" height="17" fill="white"/>
</clipPath>
</defs>
</svg>
