<svg width="18" height="20" viewBox="0 0 18 20" fill="none" xmlns="http://www.w3.org/2000/svg">
<path d="M12.0837 9.76417C12.9036 9.12303 13.5029 8.24201 13.7982 7.24397C14.0935 6.24593 14.07 5.18061 13.7309 4.19658C13.3918 3.21255 12.7541 2.35886 11.9067 1.75455C11.0593 1.15024 10.0445 0.825439 9.00366 0.825439C7.96285 0.825439 6.94798 1.15024 6.10058 1.75455C5.25318 2.35886 4.61548 3.21255 4.27642 4.19658C3.93735 5.18061 3.91382 6.24593 4.2091 7.24397C4.50439 8.24201 5.10377 9.12303 5.92366 9.76417C4.37463 10.3805 3.04588 11.447 2.10888 12.8259C1.17188 14.2048 0.669646 15.8329 0.666992 17.5V18.3333C0.666992 18.5544 0.75479 18.7663 0.91107 18.9226C1.06735 19.0789 1.27931 19.1667 1.50033 19.1667H16.5003C16.7213 19.1667 16.9333 19.0789 17.0896 18.9226C17.2459 18.7663 17.3337 18.5544 17.3337 18.3333V17.5C17.3315 15.8336 16.8303 14.2061 15.8945 12.8273C14.9588 11.4485 13.6314 10.3816 12.0837 9.76417ZM5.66699 5.83334C5.66699 5.17407 5.86249 4.5296 6.22876 3.98144C6.59503 3.43327 7.11563 3.00603 7.72471 2.75374C8.3338 2.50145 9.00402 2.43544 9.65063 2.56405C10.2972 2.69267 10.8912 3.01014 11.3573 3.47631C11.8235 3.94249 12.141 4.53643 12.2696 5.18304C12.3982 5.82964 12.3322 6.49986 12.0799 7.10895C11.8276 7.71804 11.4004 8.23863 10.8522 8.6049C10.3041 8.97117 9.6596 9.16667 9.00033 9.16667C8.11627 9.16667 7.26842 8.81548 6.6433 8.19036C6.01818 7.56524 5.66699 6.71739 5.66699 5.83334ZM2.33366 17.5C2.33366 15.7319 3.03604 14.0362 4.28628 12.786C5.53652 11.5357 7.23222 10.8333 9.00033 10.8333C10.7684 10.8333 12.4641 11.5357 13.7144 12.786C14.9646 14.0362 15.667 15.7319 15.667 17.5H2.33366Z" fill="#2D3B29"/>
</svg>
