<svg width="17" height="17" viewBox="0 0 17 17" fill="none" xmlns="http://www.w3.org/2000/svg">
<g clip-path="url(#clip0_1_5173)">
<path d="M16.0884 2.88788C15.8891 2.64877 15.6397 2.45646 15.3578 2.32462C15.0758 2.19277 14.7683 2.12462 14.4571 2.125H3.00475L2.975 1.87637C2.91412 1.35959 2.66573 0.883102 2.27693 0.537255C1.88813 0.191408 1.38594 0.000242104 0.865583 0L0.708333 0C0.520472 0 0.340304 0.0746278 0.207466 0.207466C0.0746278 0.340304 0 0.520472 0 0.708333C0 0.896195 0.0746278 1.07636 0.207466 1.2092C0.340304 1.34204 0.520472 1.41667 0.708333 1.41667H0.865583C1.03908 1.41669 1.20653 1.48039 1.33618 1.59567C1.46583 1.71096 1.54866 1.86982 1.56896 2.04212L2.54363 10.3296C2.64481 11.1915 3.05892 11.9863 3.70735 12.563C4.35578 13.1398 5.1934 13.4584 6.06121 13.4583H13.4583C13.6462 13.4583 13.8264 13.3837 13.9592 13.2509C14.092 13.118 14.1667 12.9379 14.1667 12.75C14.1667 12.5621 14.092 12.382 13.9592 12.2491C13.8264 12.1163 13.6462 12.0417 13.4583 12.0417H6.06121C5.62279 12.0404 5.19548 11.9036 4.83787 11.65C4.48026 11.3964 4.20985 11.0383 4.06371 10.625H12.507C13.3374 10.6251 14.1414 10.3333 14.7785 9.80081C15.4157 9.26829 15.8454 8.52883 15.9928 7.71162L16.5488 4.62754C16.6043 4.32155 16.5918 4.00709 16.5123 3.70645C16.4327 3.40581 16.288 3.12635 16.0884 2.88788V2.88788ZM15.1583 4.37608L14.6016 7.46017C14.5131 7.95104 14.2548 8.39516 13.8719 8.71476C13.489 9.03437 13.0058 9.20909 12.507 9.20833H3.83846L3.17192 3.54167H14.4571C14.5611 3.54105 14.6641 3.56336 14.7585 3.60701C14.853 3.65067 14.9366 3.7146 15.0036 3.79426C15.0705 3.87392 15.1191 3.96735 15.1458 4.06791C15.1726 4.16847 15.1769 4.27369 15.1583 4.37608V4.37608Z" fill="#2D3B29"/>
<path d="M4.95866 17.0004C5.74106 17.0004 6.37532 16.3662 6.37532 15.5838C6.37532 14.8014 5.74106 14.1671 4.95866 14.1671C4.17625 14.1671 3.54199 14.8014 3.54199 15.5838C3.54199 16.3662 4.17625 17.0004 4.95866 17.0004Z" fill="#2D3B29"/>
<path d="M12.0417 17.0004C12.8241 17.0004 13.4583 16.3662 13.4583 15.5838C13.4583 14.8014 12.8241 14.1671 12.0417 14.1671C11.2593 14.1671 10.625 14.8014 10.625 15.5838C10.625 16.3662 11.2593 17.0004 12.0417 17.0004Z" fill="#2D3B29"/>
</g>
<defs>
<clipPath id="clip0_1_5173">
<rect width="17" height="17" fill="white"/>
</clipPath>
</defs>
</svg>
