<svg width="17" height="12" viewBox="0 0 17 12" fill="none" xmlns="http://www.w3.org/2000/svg">
<path fill-rule="evenodd" clip-rule="evenodd" d="M0.845703 0.75C0.845703 0.335786 1.26535 0 1.783 0H15.8399C16.3576 0 16.7772 0.335786 16.7772 0.75C16.7772 1.16421 16.3576 1.5 15.8399 1.5H1.783C1.26535 1.5 0.845703 1.16421 0.845703 0.75Z" fill="#2D3B29"/>
<path fill-rule="evenodd" clip-rule="evenodd" d="M0.845703 5.94138C0.845703 5.52716 1.26535 5.19138 1.783 5.19138H15.8399C16.3576 5.19138 16.7772 5.52716 16.7772 5.94138C16.7772 6.35559 16.3576 6.69138 15.8399 6.69138H1.783C1.26535 6.69138 0.845703 6.35559 0.845703 5.94138Z" fill="#2D3B29"/>
<path fill-rule="evenodd" clip-rule="evenodd" d="M0.845703 11.1327C0.845703 10.7185 1.26535 10.3827 1.783 10.3827H15.8399C16.3576 10.3827 16.7772 10.7185 16.7772 11.1327C16.7772 11.5469 16.3576 11.8827 15.8399 11.8827H1.783C1.26535 11.8827 0.845703 11.5469 0.845703 11.1327Z" fill="#2D3B29"/>
</svg>
