<svg xmlns="http://www.w3.org/2000/svg" xmlns:xlink="http://www.w3.org/1999/xlink" width="181" zoomAndPan="magnify" viewBox="0 0 135.75 35.25" height="47" preserveAspectRatio="xMidYMid meet" version="1.0"><defs><g/><clipPath id="74132aabb9"><path d="M 2 0.199219 L 36 0.199219 L 36 34 L 2 34 Z M 2 0.199219 " clip-rule="nonzero"/></clipPath><clipPath id="7e02735c4f"><path d="M 10 17 L 36 17 L 36 34.515625 L 10 34.515625 Z M 10 17 " clip-rule="nonzero"/></clipPath><clipPath id="590be5cef2"><path d="M 18 19 L 36 19 L 36 34.515625 L 18 34.515625 Z M 18 19 " clip-rule="nonzero"/></clipPath><clipPath id="a66f51a0f5"><path d="M 14 18 L 36 18 L 36 34.515625 L 14 34.515625 Z M 14 18 " clip-rule="nonzero"/></clipPath><clipPath id="7ae1a1f6d9"><path d="M 2 21 L 17 21 L 17 34.515625 L 2 34.515625 Z M 2 21 " clip-rule="nonzero"/></clipPath><clipPath id="035b2abdad"><path d="M 2 20 L 20 20 L 20 34.515625 L 2 34.515625 Z M 2 20 " clip-rule="nonzero"/></clipPath><clipPath id="724adab752"><path d="M 1.292969 16 L 32 16 L 32 34.515625 L 1.292969 34.515625 Z M 1.292969 16 " clip-rule="nonzero"/></clipPath><clipPath id="a22ac97fa4"><path d="M 1.292969 0.199219 L 36 0.199219 L 36 34.515625 L 1.292969 34.515625 Z M 1.292969 0.199219 " clip-rule="nonzero"/></clipPath></defs><g clip-path="url(#74132aabb9)"><path fill="#ffffea" d="M 34.171875 23.382812 C 37.425781 14.867188 33.203125 5.3125 24.738281 2.035156 C 16.273438 -1.238281 6.773438 3.011719 3.519531 11.527344 C 0.261719 20.042969 4.488281 29.601562 12.949219 32.875 C 21.414062 36.148438 30.914062 31.898438 34.171875 23.382812 Z M 34.171875 23.382812 " fill-opacity="1" fill-rule="nonzero"/></g><path fill="#ffd379" d="M 26.574219 17.453125 C 26.574219 21.75 23.113281 25.230469 18.84375 25.230469 C 14.574219 25.230469 11.113281 21.75 11.113281 17.453125 C 11.113281 13.160156 14.570312 9.679688 18.84375 9.679688 C 23.109375 9.675781 26.574219 13.160156 26.574219 17.453125 Z M 26.574219 17.453125 " fill-opacity="1" fill-rule="nonzero"/><path fill="#d0db58" d="M 18.84375 25.230469 C 23.109375 25.230469 26.574219 21.75 26.574219 17.453125 C 26.574219 16.761719 26.476562 16.09375 26.308594 15.457031 C 22.992188 16.074219 19.863281 16.960938 17.027344 18.132812 C 15.164062 17.554688 13.191406 17.097656 11.148438 16.75 C 11.128906 16.980469 11.113281 17.21875 11.113281 17.457031 C 11.113281 21.75 14.574219 25.230469 18.84375 25.230469 Z M 18.84375 25.230469 " fill-opacity="1" fill-rule="nonzero"/><path stroke-linecap="round" transform="matrix(0.72998, 0, 0, 0.734375, 1.689372, 0.197615)" fill="none" stroke-linejoin="round" d="M 34.089745 23.496865 C 34.089745 29.347929 29.348607 34.087291 23.499778 34.087291 C 17.650948 34.087291 12.909811 29.347929 12.909811 23.496865 C 12.909811 17.65112 17.645597 12.911758 23.499778 12.911758 C 29.343256 12.906439 34.089745 17.65112 34.089745 23.496865 Z M 34.089745 23.496865 " stroke="#2c3c28" stroke-width="1.5" stroke-opacity="1" stroke-miterlimit="10"/><path fill="#7bab47" d="M 35.246094 16.875 C 35.238281 16.566406 35.21875 16.265625 35.191406 15.964844 C 22.765625 16.496094 11.566406 20.273438 5.902344 27.617188 C 6.640625 28.5625 7.472656 29.433594 8.394531 30.199219 C 9.3125 30.960938 10.316406 31.621094 11.382812 32.171875 C 12.445312 32.71875 13.578125 33.15625 14.757812 33.457031 C 15.945312 33.761719 17.179688 33.933594 18.453125 33.960938 C 18.582031 33.964844 18.710938 33.972656 18.84375 33.972656 C 20.101562 33.972656 21.328125 33.824219 22.503906 33.554688 C 24.179688 33.171875 25.757812 32.53125 27.191406 31.675781 C 30.203125 29.882812 32.597656 27.152344 33.972656 23.882812 C 34.277344 23.160156 34.527344 22.40625 34.730469 21.636719 C 34.859375 21.144531 34.964844 20.640625 35.046875 20.132812 C 35.109375 19.730469 35.160156 19.324219 35.195312 18.914062 C 35.226562 18.558594 35.246094 18.203125 35.253906 17.84375 C 35.253906 17.710938 35.261719 17.585938 35.261719 17.453125 C 35.261719 17.261719 35.253906 17.066406 35.246094 16.875 Z M 35.246094 16.875 " fill-opacity="1" fill-rule="nonzero"/><path fill="#a0c73a" d="M 34.757812 18.597656 C 34.542969 19.429688 34.269531 20.238281 33.941406 21.019531 C 32.460938 24.546875 29.878906 27.488281 26.632812 29.421875 C 25.085938 30.347656 23.386719 31.035156 21.578125 31.449219 C 20.308594 31.738281 18.988281 31.898438 17.628906 31.898438 C 17.488281 31.898438 17.347656 31.890625 17.207031 31.886719 C 15.835938 31.855469 14.503906 31.671875 13.226562 31.34375 C 11.953125 31.015625 10.734375 30.542969 9.589844 29.953125 C 8.4375 29.363281 7.355469 28.648438 6.363281 27.828125 C 6.238281 27.722656 6.117188 27.613281 5.996094 27.503906 C 5.964844 27.542969 5.933594 27.582031 5.902344 27.621094 C 6.640625 28.566406 7.472656 29.433594 8.394531 30.199219 C 9.3125 30.964844 10.316406 31.625 11.382812 32.171875 C 12.445312 32.71875 13.578125 33.15625 14.757812 33.460938 C 15.945312 33.765625 17.179688 33.933594 18.453125 33.964844 C 18.582031 33.96875 18.710938 33.976562 18.84375 33.976562 C 20.101562 33.976562 21.328125 33.828125 22.503906 33.558594 C 24.179688 33.175781 25.757812 32.535156 27.191406 31.679688 C 30.203125 29.886719 32.597656 27.152344 33.972656 23.882812 C 34.277344 23.160156 34.527344 22.410156 34.730469 21.640625 C 34.859375 21.148438 34.964844 20.644531 35.046875 20.132812 C 35.109375 19.734375 35.160156 19.328125 35.195312 18.914062 C 35.226562 18.5625 35.246094 18.203125 35.253906 17.84375 C 35.253906 17.714844 35.261719 17.585938 35.261719 17.457031 C 35.261719 17.261719 35.253906 17.070312 35.246094 16.875 C 35.238281 16.644531 35.222656 16.414062 35.207031 16.179688 C 35.175781 16.449219 35.140625 16.714844 35.097656 16.976562 C 35.007812 17.523438 34.894531 18.066406 34.757812 18.597656 Z M 34.757812 18.597656 " fill-opacity="1" fill-rule="nonzero"/><path stroke-linecap="round" transform="matrix(0.72998, 0, 0, 0.734375, 1.689372, 0.197615)" fill="none" stroke-linejoin="round" d="M 44.224862 32.246866 C 40.430882 35.401121 37.241584 39.188355 34.93523 42.858568 C 39.060982 40.422398 42.34125 36.704313 44.224862 32.246866 Z M 44.224862 32.246866 " stroke="#2c3c28" stroke-width="1.541" stroke-opacity="1" stroke-miterlimit="10"/><g clip-path="url(#7e02735c4f)"><path stroke-linecap="round" transform="matrix(0.72998, 0, 0, 0.734375, 1.689372, 0.197615)" fill="none" stroke-linejoin="round" d="M 45.899778 25.486227 C 45.942588 25.002185 45.969344 24.518142 45.980046 24.02878 C 31.055631 26.683036 18.303791 34.007504 13.279042 43.5341 C 14.73456 44.278781 16.2864 44.874526 17.902453 45.289419 C 21.985396 36.821334 32.842922 29.012823 45.899778 25.486227 Z M 45.899778 25.486227 " stroke="#2c3c28" stroke-width="1.541" stroke-opacity="1" stroke-miterlimit="10"/></g><path stroke-linecap="round" transform="matrix(0.72998, 0, 0, 0.734375, 1.689372, 0.197615)" fill="none" stroke-linejoin="round" d="M 45.980046 24.02878 C 45.980046 23.847929 45.990748 23.677716 45.990748 23.496865 C 45.990748 23.236227 45.980046 22.97027 45.969344 22.709631 C 29.739243 24.395802 15.483724 30.757504 9.185396 40.84793 C 10.442921 41.885164 11.818172 42.7841 13.279042 43.5341 C 18.303791 34.007504 31.055631 26.683036 45.980046 24.02878 Z M 45.980046 24.02878 " stroke="#2c3c28" stroke-width="1.2" stroke-opacity="1" stroke-miterlimit="10"/><path stroke-linecap="round" transform="matrix(0.72998, 0, 0, 0.734375, 1.689372, 0.197615)" fill="none" stroke-linejoin="round" d="M 45.969344 22.709631 C 45.958641 22.289418 45.931886 21.879844 45.894427 21.470269 C 28.872353 22.193674 13.530547 27.337291 5.771349 37.337291 C 6.78272 38.624526 7.92252 39.810696 9.185396 40.853249 C 15.483724 30.757504 29.739243 24.395802 45.969344 22.709631 Z M 45.969344 22.709631 " stroke="#2c3c28" stroke-width="1.2" stroke-opacity="1" stroke-miterlimit="10"/><path stroke-linecap="round" transform="matrix(0.72998, 0, 0, 0.734375, 1.689372, 0.197615)" fill="none" stroke-linejoin="round" d="M 44.224862 32.246866 C 44.642253 31.262823 44.984728 30.241546 45.262989 29.193674 C 37.744594 33.390483 31.660313 39.698994 28.513825 45.422398 C 30.809477 44.895802 32.97135 44.028781 34.93523 42.858568 C 37.241584 39.188355 40.430882 35.40644 44.224862 32.246866 Z M 44.224862 32.246866 " stroke="#2c3c28" stroke-width="1.2" stroke-opacity="1" stroke-miterlimit="10"/><g clip-path="url(#590be5cef2)"><path stroke-linecap="round" transform="matrix(0.72998, 0, 0, 0.734375, 1.689372, 0.197615)" fill="none" stroke-linejoin="round" d="M 45.262989 29.193674 C 45.439578 28.523461 45.584059 27.837291 45.696434 27.140482 C 35.106467 31.278781 26.491082 38.826653 22.964661 45.97559 C 23.141249 45.97559 23.323189 45.986228 23.499778 45.986228 C 25.228206 45.986228 26.908474 45.7841 28.519176 45.422398 C 31.660313 39.698994 37.744594 33.395802 45.262989 29.193674 Z M 45.262989 29.193674 " stroke="#2c3c28" stroke-width="1.2" stroke-opacity="1" stroke-miterlimit="10"/></g><g clip-path="url(#a66f51a0f5)"><path stroke-linecap="round" transform="matrix(0.72998, 0, 0, 0.734375, 1.689372, 0.197615)" fill="none" stroke-linejoin="round" d="M 45.696434 27.145802 C 45.782053 26.597929 45.851618 26.044738 45.899778 25.486227 C 32.842922 29.018142 21.985396 36.821334 17.902453 45.289419 C 19.529209 45.704313 21.220179 45.938356 22.964661 45.97559 C 26.491082 38.826653 35.106467 31.2841 45.696434 27.145802 Z M 45.696434 27.145802 " stroke="#2c3c28" stroke-width="1.2" stroke-opacity="1" stroke-miterlimit="10"/></g><path fill="#a0c73a" d="M 2.421875 17.429688 C 2.421875 17.4375 2.421875 17.445312 2.421875 17.453125 C 2.421875 17.695312 2.429688 17.933594 2.441406 18.167969 C 2.453125 18.429688 2.46875 18.691406 2.492188 18.949219 C 2.519531 19.234375 2.550781 19.515625 2.589844 19.796875 C 2.636719 20.117188 2.6875 20.433594 2.75 20.75 C 2.828125 21.136719 2.925781 21.519531 3.03125 21.894531 C 3.175781 22.433594 3.351562 22.957031 3.550781 23.46875 C 5.027344 27.265625 7.859375 30.375 11.453125 32.199219 C 12.710938 32.839844 14.0625 33.324219 15.480469 33.621094 C 16.566406 33.851562 17.691406 33.96875 18.84375 33.96875 C 18.925781 33.96875 19.003906 33.964844 19.085938 33.964844 C 23.703125 33.898438 27.859375 31.914062 30.800781 28.765625 C 25.726562 21.328125 14.628906 17.675781 2.421875 17.429688 Z M 2.421875 17.429688 " fill-opacity="1" fill-rule="nonzero"/><path fill="#d0db58" d="M 20.804688 31.675781 C 19.476562 31.675781 18.179688 31.539062 16.929688 31.273438 C 15.296875 30.933594 13.738281 30.375 12.285156 29.636719 C 8.152344 27.535156 4.886719 23.953125 3.1875 19.578125 C 2.957031 18.988281 2.753906 18.386719 2.585938 17.769531 C 2.554688 17.65625 2.527344 17.542969 2.496094 17.433594 C 2.472656 17.433594 2.449219 17.429688 2.421875 17.429688 C 2.421875 17.4375 2.421875 17.445312 2.421875 17.453125 C 2.421875 17.695312 2.429688 17.933594 2.441406 18.167969 C 2.453125 18.429688 2.46875 18.691406 2.492188 18.949219 C 2.519531 19.234375 2.550781 19.515625 2.589844 19.796875 C 2.636719 20.117188 2.6875 20.433594 2.75 20.75 C 2.828125 21.136719 2.925781 21.519531 3.03125 21.894531 C 3.175781 22.433594 3.351562 22.957031 3.550781 23.46875 C 5.027344 27.265625 7.859375 30.375 11.453125 32.199219 C 12.710938 32.839844 14.0625 33.324219 15.480469 33.621094 C 16.566406 33.851562 17.691406 33.96875 18.84375 33.96875 C 18.925781 33.96875 19.003906 33.964844 19.085938 33.964844 C 23.671875 33.898438 27.796875 31.941406 30.738281 28.832031 C 27.925781 30.582031 24.625 31.617188 21.085938 31.667969 C 20.992188 31.671875 20.898438 31.675781 20.804688 31.675781 Z M 20.804688 31.675781 " fill-opacity="1" fill-rule="nonzero"/><g clip-path="url(#7ae1a1f6d9)"><path stroke-linecap="round" transform="matrix(0.72998, 0, 0, 0.734375, 1.689372, 0.197615)" fill="none" stroke-linejoin="round" d="M 1.832887 29.550057 C 2.036232 30.2841 2.277035 30.996866 2.549944 31.693674 C 7.130547 34.991547 10.913824 39.417079 13.375363 43.581973 C 15.09844 44.454313 16.949945 45.113887 18.89242 45.518143 C 15.917169 39.821334 9.608139 33.379844 1.832887 29.550057 Z M 1.832887 29.550057 " stroke="#2c3c28" stroke-width="1.541" stroke-opacity="1" stroke-miterlimit="10"/></g><path stroke-linecap="round" transform="matrix(0.72998, 0, 0, 0.734375, 1.689372, 0.197615)" fill="none" stroke-linejoin="round" d="M 2.549944 31.688355 C 4.572687 36.858568 8.452286 41.092611 13.375363 43.576653 C 10.913824 39.417079 7.130547 34.991547 2.549944 31.688355 Z M 2.549944 31.688355 " stroke="#2c3c28" stroke-width="1.2" stroke-opacity="1" stroke-miterlimit="10"/><g clip-path="url(#035b2abdad)"><path stroke-linecap="round" transform="matrix(0.72998, 0, 0, 0.734375, 1.689372, 0.197615)" fill="none" stroke-linejoin="round" d="M 1.458306 27.986227 C 1.559978 28.518142 1.693757 29.039419 1.838239 29.550057 C 9.608139 33.379844 15.92252 39.821334 18.897771 45.518143 C 20.380045 45.826653 21.921182 45.991547 23.499778 45.991547 C 23.612152 45.991547 23.724527 45.986228 23.836902 45.986228 C 20.620848 39.044738 11.978707 31.59261 1.458306 27.986227 Z M 1.458306 27.986227 " stroke="#2c3c28" stroke-width="1.2" stroke-opacity="1" stroke-miterlimit="10"/></g><g clip-path="url(#724adab752)"><path stroke-linecap="round" transform="matrix(0.72998, 0, 0, 0.734375, 1.689372, 0.197615)" fill="none" stroke-linejoin="round" d="M 1.030212 24.47027 C 1.014158 24.151121 1.003456 23.826653 1.003456 23.496865 C 1.003456 23.486227 1.003456 23.475589 1.003456 23.46495 C 17.725865 23.800057 32.928541 28.773461 39.879711 38.901121 C 35.85028 43.188355 30.156634 45.890483 23.83155 45.980909 C 20.615497 39.044738 11.978707 31.59261 1.452954 27.986227 C 1.367336 27.555376 1.29777 27.124525 1.233556 26.688355 M 1.030212 24.47027 C 16.751952 25.693674 30.723858 31.746866 36.406802 41.587292 C 30.729209 31.746866 16.751952 25.693674 1.030212 24.47027 Z M 1.030212 24.47027 C 1.046265 24.826653 1.06767 25.183036 1.099777 25.534099 M 1.099777 25.534099 C 15.349945 27.635163 27.711149 34.459632 32.388072 43.464951 C 27.711149 34.459632 15.355296 27.635163 1.099777 25.534099 Z M 1.099777 25.534099 C 1.137235 25.922397 1.180045 26.305376 1.233556 26.688355 M 1.233556 26.688355 C 13.969343 29.651121 24.687738 37.193674 28.369343 45.342611 " stroke="#2c3c28" stroke-width="1.2" stroke-opacity="1" stroke-miterlimit="10"/></g><g clip-path="url(#a22ac97fa4)"><path stroke-linecap="round" transform="matrix(0.72998, 0, 0, 0.734375, 1.689372, 0.197615)" fill="none" stroke-linejoin="round" d="M 44.497772 31.571334 C 48.955297 19.975589 43.170681 6.96495 31.574694 2.502184 C 19.978707 -1.955263 6.96466 3.831971 2.507135 15.427716 C -1.955741 27.023461 3.834225 40.039419 15.424861 44.496866 C 27.020848 48.954313 40.034895 43.167079 44.497772 31.571334 Z M 44.497772 31.571334 " stroke="#ffffff" stroke-width="1.5" stroke-opacity="1" stroke-miterlimit="10"/></g><g fill="#ffffff" fill-opacity="1"><g transform="translate(44.349902, 25.703125)"><g><path d="M 1.0625 0 C 0.8125 0 0.6875 -0.117188 0.6875 -0.359375 L 0.6875 -2.5 C 0.6875 -2.6875 0.738281 -2.835938 0.84375 -2.953125 L 7.734375 -12.328125 C 7.765625 -12.367188 7.769531 -12.398438 7.75 -12.421875 C 7.738281 -12.453125 7.707031 -12.46875 7.65625 -12.46875 L 1.0625 -12.46875 C 0.8125 -12.46875 0.6875 -12.59375 0.6875 -12.84375 L 0.6875 -14.71875 C 0.6875 -14.957031 0.8125 -15.078125 1.0625 -15.078125 L 10.8125 -15.078125 C 11.0625 -15.078125 11.1875 -14.957031 11.1875 -14.71875 L 11.1875 -12.578125 C 11.1875 -12.390625 11.132812 -12.238281 11.03125 -12.125 L 4.140625 -2.765625 C 4.109375 -2.710938 4.097656 -2.671875 4.109375 -2.640625 C 4.128906 -2.617188 4.164062 -2.609375 4.21875 -2.609375 L 10.8125 -2.609375 C 11.0625 -2.609375 11.1875 -2.484375 11.1875 -2.234375 L 11.1875 -0.359375 C 11.1875 -0.117188 11.0625 0 10.8125 0 Z M 1.0625 0 "/></g></g></g><g fill="#ffffff" fill-opacity="1"><g transform="translate(56.346471, 25.703125)"><g><path d="M 6.671875 0.234375 C 5.554688 0.234375 4.570312 0.00390625 3.71875 -0.453125 C 2.863281 -0.910156 2.195312 -1.550781 1.71875 -2.375 C 1.25 -3.207031 1.015625 -4.160156 1.015625 -5.234375 L 1.015625 -9.84375 C 1.015625 -10.90625 1.25 -11.84375 1.71875 -12.65625 C 2.195312 -13.476562 2.863281 -14.113281 3.71875 -14.5625 C 4.570312 -15.019531 5.554688 -15.25 6.671875 -15.25 C 7.804688 -15.25 8.800781 -15.019531 9.65625 -14.5625 C 10.519531 -14.113281 11.1875 -13.476562 11.65625 -12.65625 C 12.132812 -11.84375 12.375 -10.90625 12.375 -9.84375 L 12.375 -5.234375 C 12.375 -4.160156 12.132812 -3.207031 11.65625 -2.375 C 11.1875 -1.539062 10.519531 -0.894531 9.65625 -0.4375 C 8.800781 0.0078125 7.804688 0.234375 6.671875 0.234375 Z M 6.671875 -2.375 C 7.460938 -2.375 8.101562 -2.625 8.59375 -3.125 C 9.082031 -3.625 9.328125 -4.289062 9.328125 -5.125 L 9.328125 -9.875 C 9.328125 -10.707031 9.085938 -11.375 8.609375 -11.875 C 8.128906 -12.382812 7.484375 -12.640625 6.671875 -12.640625 C 5.890625 -12.640625 5.253906 -12.382812 4.765625 -11.875 C 4.285156 -11.375 4.046875 -10.707031 4.046875 -9.875 L 4.046875 -5.125 C 4.046875 -4.289062 4.285156 -3.625 4.765625 -3.125 C 5.253906 -2.625 5.890625 -2.375 6.671875 -2.375 Z M 6.671875 -2.375 "/></g></g></g><g fill="#ffffff" fill-opacity="1"><g transform="translate(69.721461, 25.703125)"><g><path d="M 11.015625 0 C 10.804688 0 10.664062 -0.0976562 10.59375 -0.296875 L 10 -2.3125 C 9.976562 -2.375 9.9375 -2.40625 9.875 -2.40625 L 4.59375 -2.40625 C 4.519531 -2.40625 4.472656 -2.375 4.453125 -2.3125 L 3.859375 -0.296875 C 3.785156 -0.0976562 3.648438 0 3.453125 0 L 0.953125 0 C 0.816406 0 0.71875 -0.0351562 0.65625 -0.109375 C 0.601562 -0.191406 0.597656 -0.289062 0.640625 -0.40625 L 5.234375 -14.78125 C 5.304688 -14.976562 5.441406 -15.078125 5.640625 -15.078125 L 8.8125 -15.078125 C 9.007812 -15.078125 9.144531 -14.976562 9.21875 -14.78125 L 13.8125 -0.40625 C 13.820312 -0.375 13.828125 -0.332031 13.828125 -0.28125 C 13.828125 -0.195312 13.796875 -0.128906 13.734375 -0.078125 C 13.679688 -0.0234375 13.609375 0 13.515625 0 Z M 5.21875 -4.90625 C 5.195312 -4.8125 5.234375 -4.765625 5.328125 -4.765625 L 9.140625 -4.765625 C 9.222656 -4.765625 9.257812 -4.8125 9.25 -4.90625 L 7.296875 -11.484375 C 7.285156 -11.546875 7.257812 -11.578125 7.21875 -11.578125 C 7.1875 -11.578125 7.15625 -11.546875 7.125 -11.484375 Z M 5.21875 -4.90625 "/></g></g></g><g fill="#ffffff" fill-opacity="1"><g transform="translate(83.326715, 25.703125)"><g><path d="M 2.3125 0 C 2.125 0 2.03125 -0.09375 2.03125 -0.28125 L 2.03125 -14.796875 C 2.03125 -14.984375 2.125 -15.078125 2.3125 -15.078125 L 3.3125 -15.078125 C 3.445312 -15.078125 3.554688 -15.015625 3.640625 -14.890625 L 7.578125 -8.65625 C 7.628906 -8.570312 7.675781 -8.570312 7.71875 -8.65625 L 11.671875 -14.890625 C 11.765625 -15.015625 11.875 -15.078125 12 -15.078125 L 13.015625 -15.078125 C 13.203125 -15.078125 13.296875 -14.984375 13.296875 -14.796875 L 13.296875 -0.28125 C 13.296875 -0.09375 13.203125 0 13.015625 0 L 12.046875 0 C 11.859375 0 11.765625 -0.09375 11.765625 -0.28125 L 11.765625 -12.171875 C 11.765625 -12.234375 11.75 -12.265625 11.71875 -12.265625 C 11.6875 -12.265625 11.660156 -12.242188 11.640625 -12.203125 L 8.234375 -6.8125 C 8.148438 -6.675781 8.039062 -6.609375 7.90625 -6.609375 L 7.40625 -6.609375 C 7.28125 -6.609375 7.175781 -6.675781 7.09375 -6.8125 L 3.6875 -12.203125 C 3.65625 -12.242188 3.625 -12.265625 3.59375 -12.265625 C 3.570312 -12.265625 3.5625 -12.234375 3.5625 -12.171875 L 3.5625 -0.28125 C 3.5625 -0.09375 3.46875 0 3.28125 0 Z M 2.3125 0 "/></g></g></g><g fill="#ffffff" fill-opacity="1"><g transform="translate(97.563025, 25.703125)"><g><path d="M 11.015625 0 C 10.847656 0 10.742188 -0.078125 10.703125 -0.234375 L 9.84375 -2.859375 C 9.8125 -2.921875 9.773438 -2.953125 9.734375 -2.953125 L 3.3125 -2.953125 C 3.269531 -2.953125 3.234375 -2.921875 3.203125 -2.859375 L 2.375 -0.234375 C 2.332031 -0.078125 2.226562 0 2.0625 0 L 1.03125 0 C 0.9375 0 0.863281 -0.0234375 0.8125 -0.078125 C 0.769531 -0.140625 0.765625 -0.222656 0.796875 -0.328125 L 5.53125 -14.84375 C 5.582031 -15 5.6875 -15.078125 5.84375 -15.078125 L 7.21875 -15.078125 C 7.375 -15.078125 7.472656 -15 7.515625 -14.84375 L 12.28125 -0.328125 C 12.289062 -0.296875 12.296875 -0.257812 12.296875 -0.21875 C 12.296875 -0.15625 12.269531 -0.101562 12.21875 -0.0625 C 12.175781 -0.0195312 12.117188 0 12.046875 0 Z M 3.6875 -4.328125 C 3.664062 -4.242188 3.691406 -4.203125 3.765625 -4.203125 L 9.3125 -4.203125 C 9.394531 -4.203125 9.421875 -4.242188 9.390625 -4.328125 L 6.59375 -13.140625 C 6.582031 -13.203125 6.5625 -13.234375 6.53125 -13.234375 C 6.5 -13.234375 6.476562 -13.203125 6.46875 -13.140625 Z M 3.6875 -4.328125 "/></g></g></g><g fill="#ffffff" fill-opacity="1"><g transform="translate(109.559399, 25.703125)"><g><path d="M 10.875 0 C 10.71875 0 10.601562 -0.0703125 10.53125 -0.21875 L 7.390625 -6.859375 C 7.359375 -6.910156 7.316406 -6.9375 7.265625 -6.9375 L 3.65625 -6.9375 C 3.59375 -6.9375 3.5625 -6.898438 3.5625 -6.828125 L 3.5625 -0.28125 C 3.5625 -0.09375 3.46875 0 3.28125 0 L 2.3125 0 C 2.125 0 2.03125 -0.09375 2.03125 -0.28125 L 2.03125 -14.828125 C 2.03125 -15.015625 2.125 -15.109375 2.3125 -15.109375 L 7.828125 -15.109375 C 9.054688 -15.109375 10.050781 -14.726562 10.8125 -13.96875 C 11.570312 -13.207031 11.953125 -12.207031 11.953125 -10.96875 C 11.953125 -9.957031 11.679688 -9.101562 11.140625 -8.40625 C 10.609375 -7.71875 9.875 -7.265625 8.9375 -7.046875 C 8.863281 -7.035156 8.84375 -6.992188 8.875 -6.921875 L 12.09375 -0.328125 C 12.113281 -0.265625 12.125 -0.21875 12.125 -0.1875 C 12.125 -0.0625 12.039062 0 11.875 0 Z M 3.65625 -13.765625 C 3.59375 -13.765625 3.5625 -13.726562 3.5625 -13.65625 L 3.5625 -8.28125 C 3.5625 -8.207031 3.59375 -8.171875 3.65625 -8.171875 L 7.65625 -8.171875 C 8.488281 -8.171875 9.160156 -8.425781 9.671875 -8.9375 C 10.191406 -9.445312 10.453125 -10.117188 10.453125 -10.953125 C 10.453125 -11.785156 10.191406 -12.460938 9.671875 -12.984375 C 9.160156 -13.503906 8.488281 -13.765625 7.65625 -13.765625 Z M 3.65625 -13.765625 "/></g></g></g><g fill="#ffffff" fill-opacity="1"><g transform="translate(121.663473, 25.703125)"><g><path d="M 11.046875 -15.078125 C 11.234375 -15.078125 11.328125 -14.984375 11.328125 -14.796875 L 11.328125 -14 C 11.328125 -13.8125 11.234375 -13.71875 11.046875 -13.71875 L 6.921875 -13.71875 C 6.847656 -13.71875 6.8125 -13.6875 6.8125 -13.625 L 6.8125 -0.28125 C 6.8125 -0.09375 6.71875 0 6.53125 0 L 5.5625 0 C 5.375 0 5.28125 -0.09375 5.28125 -0.28125 L 5.28125 -13.625 C 5.28125 -13.6875 5.242188 -13.71875 5.171875 -13.71875 L 1.203125 -13.71875 C 1.015625 -13.71875 0.921875 -13.8125 0.921875 -14 L 0.921875 -14.796875 C 0.921875 -14.984375 1.015625 -15.078125 1.203125 -15.078125 Z M 11.046875 -15.078125 "/></g></g></g></svg>