<svg xmlns="http://www.w3.org/2000/svg" xmlns:xlink="http://www.w3.org/1999/xlink" width="181" zoomAndPan="magnify" viewBox="0 0 135.75 35.25" height="47" preserveAspectRatio="xMidYMid meet" version="1.0"><defs><g/><clipPath id="507370c9c4"><path d="M 46 10 L 46.824219 10 L 46.824219 25 L 46 25 Z M 46 10 " clip-rule="nonzero"/></clipPath><clipPath id="a470ccfc28"><path d="M 17 19 L 36 19 L 36 34.515625 L 17 34.515625 Z M 17 19 " clip-rule="nonzero"/></clipPath><clipPath id="8b74f66d94"><path d="M 13 18 L 36 18 L 36 34.515625 L 13 34.515625 Z M 13 18 " clip-rule="nonzero"/></clipPath><clipPath id="9da90675e8"><path d="M 1.292969 20 L 20 20 L 20 34.515625 L 1.292969 34.515625 Z M 1.292969 20 " clip-rule="nonzero"/></clipPath><clipPath id="72d87b02bf"><path d="M 1.292969 16 L 32 16 L 32 34.515625 L 1.292969 34.515625 Z M 1.292969 16 " clip-rule="nonzero"/></clipPath><clipPath id="b6916eab46"><path d="M 1.292969 0 L 36 0 L 36 34.515625 L 1.292969 34.515625 Z M 1.292969 0 " clip-rule="nonzero"/></clipPath></defs><g clip-path="url(#507370c9c4)"><path fill="#2c3c28" d="M 50.355469 13.148438 L 50.355469 16.117188 L 55.089844 16.117188 L 55.089844 18.878906 L 50.355469 18.878906 L 50.355469 22.101562 L 55.710938 22.101562 L 55.710938 24.96875 L 46.824219 24.96875 L 46.824219 10.28125 L 55.710938 10.28125 L 55.710938 13.148438 Z M 50.355469 13.148438 " fill-opacity="1" fill-rule="nonzero"/></g><path fill="#ffffea" d="M 33.96875 23.1875 C 37.242188 14.671875 32.992188 5.113281 24.476562 1.839844 C 15.960938 -1.433594 6.40625 2.8125 3.132812 11.328125 C -0.144531 19.84375 4.105469 29.402344 12.621094 32.675781 C 21.136719 35.949219 30.695312 31.703125 33.96875 23.1875 Z M 33.96875 23.1875 " fill-opacity="1" fill-rule="nonzero"/><path fill="#ffd379" d="M 26.324219 17.257812 C 26.324219 21.550781 22.84375 25.035156 18.546875 25.035156 C 14.253906 25.035156 10.769531 21.554688 10.769531 17.257812 C 10.769531 12.960938 14.25 9.480469 18.546875 9.480469 C 22.84375 9.480469 26.324219 12.960938 26.324219 17.257812 Z M 26.324219 17.257812 " fill-opacity="1" fill-rule="nonzero"/><path fill="#d0db58" d="M 18.550781 25.035156 C 22.84375 25.035156 26.328125 21.554688 26.328125 17.257812 C 26.328125 16.5625 26.230469 15.894531 26.058594 15.257812 C 22.722656 15.875 19.574219 16.761719 16.722656 17.933594 C 14.847656 17.355469 12.863281 16.898438 10.808594 16.550781 C 10.789062 16.785156 10.773438 17.019531 10.773438 17.257812 C 10.773438 21.550781 14.253906 25.035156 18.550781 25.035156 Z M 18.550781 25.035156 " fill-opacity="1" fill-rule="nonzero"/><path stroke-linecap="round" transform="matrix(0.734375, 0, 0, 0.734375, 1.291667, 0.000000979167)" fill="none" stroke-linejoin="round" d="M 34.086881 23.5 C 34.086881 29.345745 29.347519 34.090426 23.496455 34.090426 C 17.65071 34.090426 12.906029 29.351064 12.906029 23.5 C 12.906029 17.648936 17.645391 12.909574 23.496455 12.909574 C 29.347519 12.909574 34.086881 17.648936 34.086881 23.5 Z M 34.086881 23.5 " stroke="#2c3c28" stroke-width="1.5" stroke-opacity="1" stroke-miterlimit="10"/><path fill="#7bab47" d="M 35.050781 16.675781 C 35.042969 16.371094 35.023438 16.066406 34.996094 15.765625 C 22.492188 16.300781 11.226562 20.074219 5.53125 27.421875 C 6.269531 28.367188 7.109375 29.234375 8.035156 30 C 8.957031 30.761719 9.96875 31.421875 11.042969 31.972656 C 12.113281 32.519531 13.25 32.957031 14.4375 33.261719 C 15.632812 33.5625 16.875 33.734375 18.152344 33.765625 C 18.285156 33.765625 18.414062 33.773438 18.546875 33.773438 C 19.816406 33.773438 21.046875 33.628906 22.230469 33.359375 C 23.914062 32.972656 25.503906 32.335938 26.949219 31.480469 C 29.976562 29.6875 32.386719 26.953125 33.769531 23.683594 C 34.074219 22.960938 34.328125 22.210938 34.53125 21.441406 C 34.660156 20.949219 34.765625 20.445312 34.847656 19.933594 C 34.914062 19.53125 34.964844 19.125 35 18.714844 C 35.027344 18.359375 35.046875 18.003906 35.054688 17.644531 C 35.058594 17.515625 35.066406 17.386719 35.066406 17.257812 C 35.066406 17.0625 35.058594 16.871094 35.050781 16.675781 Z M 35.050781 16.675781 " fill-opacity="1" fill-rule="nonzero"/><path fill="#a0c73a" d="M 34.558594 18.402344 C 34.34375 19.234375 34.066406 20.042969 33.738281 20.820312 C 32.246094 24.347656 29.652344 27.292969 26.386719 29.226562 C 24.828125 30.148438 23.117188 30.839844 21.300781 31.25 C 20.023438 31.542969 18.695312 31.699219 17.328125 31.699219 C 17.183594 31.699219 17.042969 31.691406 16.902344 31.691406 C 15.523438 31.65625 14.183594 31.472656 12.898438 31.144531 C 11.617188 30.816406 10.390625 30.34375 9.238281 29.757812 C 8.078125 29.164062 6.992188 28.453125 5.996094 27.632812 C 5.867188 27.527344 5.746094 27.414062 5.621094 27.308594 C 5.59375 27.34375 5.558594 27.382812 5.53125 27.421875 C 6.269531 28.371094 7.109375 29.238281 8.035156 30.003906 C 8.957031 30.765625 9.96875 31.425781 11.042969 31.976562 C 12.113281 32.523438 13.25 32.960938 14.4375 33.261719 C 15.632812 33.566406 16.875 33.738281 18.152344 33.765625 C 18.285156 33.769531 18.414062 33.777344 18.546875 33.777344 C 19.816406 33.777344 21.046875 33.628906 22.230469 33.359375 C 23.914062 32.976562 25.503906 32.335938 26.949219 31.480469 C 29.976562 29.6875 32.386719 26.957031 33.769531 23.6875 C 34.074219 22.964844 34.328125 22.214844 34.53125 21.441406 C 34.660156 20.949219 34.765625 20.445312 34.847656 19.9375 C 34.914062 19.535156 34.964844 19.128906 35 18.71875 C 35.027344 18.363281 35.046875 18.007812 35.054688 17.648438 C 35.058594 17.515625 35.066406 17.390625 35.066406 17.257812 C 35.066406 17.066406 35.058594 16.871094 35.050781 16.679688 C 35.042969 16.445312 35.027344 16.214844 35.007812 15.980469 C 34.976562 16.25 34.945312 16.515625 34.902344 16.78125 C 34.808594 17.328125 34.699219 17.867188 34.558594 18.402344 Z M 34.558594 18.402344 " fill-opacity="1" fill-rule="nonzero"/><path stroke-linecap="round" transform="matrix(0.734375, 0, 0, 0.734375, 1.291667, 0.000000979167)" fill="none" stroke-linejoin="round" d="M 44.225179 32.244681 C 40.432626 35.398936 37.241136 39.19149 34.937945 42.861703 C 39.060285 40.420213 42.3422 36.702128 44.225179 32.244681 Z M 44.225179 32.244681 " stroke="#2c3c28" stroke-width="1.541" stroke-opacity="1" stroke-miterlimit="10"/><path stroke-linecap="round" transform="matrix(0.734375, 0, 0, 0.734375, 1.291667, 0.000000979167)" fill="none" stroke-linejoin="round" d="M 45.900711 25.484042 C 45.937945 25 45.964541 24.515957 45.975179 24.026595 C 31.054966 26.680851 18.304965 34.005319 13.278369 43.531915 C 14.735816 44.281915 16.283689 44.872341 17.90071 45.287235 C 21.985817 36.819149 32.8422 29.015957 45.900711 25.484042 Z M 45.900711 25.484042 " stroke="#2c3c28" stroke-width="1.541" stroke-opacity="1" stroke-miterlimit="10"/><path stroke-linecap="round" transform="matrix(0.734375, 0, 0, 0.734375, 1.291667, 0.000000979167)" fill="none" stroke-linejoin="round" d="M 45.975179 24.026595 C 45.980498 23.851063 45.991137 23.675532 45.991137 23.5 C 45.991137 23.234042 45.980498 22.973404 45.96986 22.707446 C 29.735817 24.398936 15.480497 30.755319 9.182624 40.845745 C 10.437944 41.888298 11.815603 42.787234 13.278369 43.531915 C 18.304965 34.005319 31.054966 26.680851 45.975179 24.026595 Z M 45.975179 24.026595 " stroke="#2c3c28" stroke-width="1.2" stroke-opacity="1" stroke-miterlimit="10"/><path stroke-linecap="round" transform="matrix(0.734375, 0, 0, 0.734375, 1.291667, 0.000000979167)" fill="none" stroke-linejoin="round" d="M 45.96986 22.707446 C 45.959222 22.292553 45.932626 21.877659 45.895392 21.468085 C 28.868796 22.196808 13.528369 27.335106 5.77305 37.340426 C 6.778369 38.62766 7.921986 39.808511 9.182624 40.851064 C 15.480497 30.755319 29.735817 24.393617 45.96986 22.707446 Z M 45.96986 22.707446 " stroke="#2c3c28" stroke-width="1.2" stroke-opacity="1" stroke-miterlimit="10"/><path stroke-linecap="round" transform="matrix(0.734375, 0, 0, 0.734375, 1.291667, 0.000000979167)" fill="none" stroke-linejoin="round" d="M 44.225179 32.244681 C 44.640073 31.260638 44.985817 30.239362 45.262413 29.191489 C 37.741136 33.393617 31.65603 39.696809 28.512413 45.420213 C 30.804966 44.898937 32.96986 44.026596 34.932626 42.861703 C 37.235817 39.19149 40.432626 35.404255 44.225179 32.244681 Z M 44.225179 32.244681 " stroke="#2c3c28" stroke-width="1.2" stroke-opacity="1" stroke-miterlimit="10"/><g clip-path="url(#a470ccfc28)"><path stroke-linecap="round" transform="matrix(0.734375, 0, 0, 0.734375, 1.291667, 0.000000979167)" fill="none" stroke-linejoin="round" d="M 45.262413 29.191489 C 45.437945 28.521276 45.581562 27.835106 45.693264 27.143617 C 35.108157 31.281915 26.491136 38.824468 22.96454 45.973405 C 23.140072 45.978724 23.320923 45.989362 23.501774 45.989362 C 25.225178 45.989362 26.906029 45.787235 28.517732 45.420213 C 31.661349 39.702128 37.741136 33.393617 45.262413 29.191489 Z M 45.262413 29.191489 " stroke="#2c3c28" stroke-width="1.2" stroke-opacity="1" stroke-miterlimit="10"/></g><g clip-path="url(#8b74f66d94)"><path stroke-linecap="round" transform="matrix(0.734375, 0, 0, 0.734375, 1.291667, 0.000000979167)" fill="none" stroke-linejoin="round" d="M 45.693264 27.143617 C 45.78369 26.595744 45.84752 26.042553 45.895392 25.484042 C 32.8422 29.015957 21.980497 36.824468 17.90071 45.292554 C 19.52305 45.702128 21.219859 45.936171 22.959221 45.978724 C 26.491136 38.829788 35.108157 31.281915 45.693264 27.143617 Z M 45.693264 27.143617 " stroke="#2c3c28" stroke-width="1.2" stroke-opacity="1" stroke-miterlimit="10"/></g><path fill="#a0c73a" d="M 2.03125 17.234375 C 2.03125 17.242188 2.03125 17.25 2.03125 17.257812 C 2.03125 17.496094 2.039062 17.734375 2.046875 17.972656 C 2.058594 18.234375 2.078125 18.492188 2.101562 18.753906 C 2.125 19.035156 2.160156 19.320312 2.199219 19.597656 C 2.242188 19.917969 2.296875 20.238281 2.359375 20.550781 C 2.4375 20.941406 2.535156 21.320312 2.640625 21.699219 C 2.789062 22.234375 2.964844 22.761719 3.164062 23.273438 C 4.652344 27.070312 7.5 30.179688 11.113281 32.003906 C 12.378906 32.644531 13.738281 33.128906 15.164062 33.421875 C 16.257812 33.652344 17.390625 33.773438 18.550781 33.773438 C 18.632812 33.773438 18.710938 33.765625 18.792969 33.765625 C 23.441406 33.699219 27.621094 31.714844 30.582031 28.566406 C 25.476562 21.132812 14.308594 17.476562 2.03125 17.234375 Z M 2.03125 17.234375 " fill-opacity="1" fill-rule="nonzero"/><path fill="#d0db58" d="M 20.523438 31.480469 C 19.1875 31.480469 17.882812 31.339844 16.625 31.078125 C 14.980469 30.734375 13.414062 30.175781 11.953125 29.441406 C 7.792969 27.335938 4.511719 23.753906 2.796875 19.382812 C 2.566406 18.792969 2.363281 18.1875 2.195312 17.570312 C 2.164062 17.460938 2.136719 17.347656 2.105469 17.238281 C 2.082031 17.238281 2.054688 17.234375 2.03125 17.234375 C 2.03125 17.242188 2.03125 17.25 2.03125 17.257812 C 2.03125 17.496094 2.039062 17.734375 2.046875 17.972656 C 2.058594 18.234375 2.078125 18.492188 2.101562 18.753906 C 2.125 19.035156 2.160156 19.320312 2.199219 19.597656 C 2.242188 19.917969 2.296875 20.238281 2.359375 20.550781 C 2.4375 20.941406 2.535156 21.320312 2.640625 21.699219 C 2.789062 22.234375 2.964844 22.761719 3.164062 23.273438 C 4.652344 27.070312 7.5 30.179688 11.113281 32.003906 C 12.378906 32.644531 13.738281 33.128906 15.164062 33.421875 C 16.257812 33.652344 17.390625 33.773438 18.550781 33.773438 C 18.632812 33.773438 18.710938 33.765625 18.792969 33.765625 C 23.40625 33.699219 27.558594 31.742188 30.515625 28.632812 C 27.6875 30.382812 24.367188 31.417969 20.804688 31.472656 C 20.710938 31.472656 20.617188 31.480469 20.523438 31.480469 Z M 20.523438 31.480469 " fill-opacity="1" fill-rule="nonzero"/><path stroke-linecap="round" transform="matrix(0.734375, 0, 0, 0.734375, 1.291667, 0.000000979167)" fill="none" stroke-linejoin="round" d="M 1.83688 29.547872 C 2.039007 30.281915 2.278369 30.994681 2.549645 31.691489 C 7.129433 34.989362 10.916667 39.414894 13.374114 43.579788 C 15.097518 44.452128 16.948582 45.111703 18.890072 45.515958 C 15.916667 39.819149 9.608156 33.37766 1.83688 29.547872 Z M 1.83688 29.547872 " stroke="#2c3c28" stroke-width="1.541" stroke-opacity="1" stroke-miterlimit="10"/><path stroke-linecap="round" transform="matrix(0.734375, 0, 0, 0.734375, 1.291667, 0.000000979167)" fill="none" stroke-linejoin="round" d="M 2.549645 31.691489 C 4.576241 36.861702 8.453901 41.095745 13.374114 43.579788 C 10.916667 39.414894 7.129433 34.989362 2.549645 31.691489 Z M 2.549645 31.691489 " stroke="#2c3c28" stroke-width="1.2" stroke-opacity="1" stroke-miterlimit="10"/><g clip-path="url(#9da90675e8)"><path stroke-linecap="round" transform="matrix(0.734375, 0, 0, 0.734375, 1.291667, 0.000000979167)" fill="none" stroke-linejoin="round" d="M 1.45922 27.989362 C 1.560284 28.515957 1.698582 29.037234 1.842199 29.547872 C 9.613476 33.382979 15.921986 39.819149 18.895391 45.515958 C 20.384753 45.829788 21.921987 45.989362 23.501774 45.989362 C 23.613476 45.989362 23.725178 45.984043 23.83688 45.984043 C 20.624114 39.042553 11.980497 31.595745 1.45922 27.989362 Z M 1.45922 27.989362 " stroke="#2c3c28" stroke-width="1.2" stroke-opacity="1" stroke-miterlimit="10"/></g><g clip-path="url(#72d87b02bf)"><path stroke-linecap="round" transform="matrix(0.734375, 0, 0, 0.734375, 1.291667, 0.000000979167)" fill="none" stroke-linejoin="round" d="M 1.028369 24.473404 C 1.017731 24.148936 1.007092 23.824468 1.007092 23.5 C 1.007092 23.489361 1.007092 23.478723 1.007092 23.468085 C 17.725178 23.797872 32.932625 28.776596 39.884753 38.898936 C 35.852838 43.186171 30.161349 45.888298 23.831561 45.978724 C 20.618795 39.042553 11.980497 31.595745 1.453901 27.984042 C 1.368794 27.55851 1.294326 27.12234 1.235816 26.68617 M 1.028369 24.473404 C 16.751774 25.696808 30.725179 31.744681 36.40603 41.590426 C 30.730498 31.744681 16.751774 25.696808 1.028369 24.473404 Z M 1.028369 24.473404 C 1.044326 24.829787 1.070922 25.180851 1.102837 25.537234 M 1.102837 25.537234 C 15.352838 27.638298 27.71454 34.462766 32.390072 43.468086 C 27.71454 34.457447 15.358157 27.632979 1.102837 25.537234 Z M 1.102837 25.537234 C 1.134752 25.920213 1.182624 26.30851 1.235816 26.68617 M 1.235816 26.68617 C 13.969859 29.654255 24.687944 37.19149 28.374115 45.340426 " stroke="#2c3c28" stroke-width="1.2" stroke-opacity="1" stroke-miterlimit="10"/></g><g clip-path="url(#b6916eab46)"><path stroke-linecap="round" transform="matrix(0.734375, 0, 0, 0.734375, 1.291667, 0.000000979167)" fill="none" stroke-linejoin="round" d="M 44.496456 31.574468 C 48.953903 19.978723 43.166668 6.962765 31.570923 2.505318 C 19.975178 -1.952129 6.964539 3.829786 2.507092 15.425531 C -1.955674 27.021276 3.83156 40.037234 15.427306 44.494681 C 27.023051 48.952128 40.039009 43.170213 44.496456 31.574468 Z M 44.496456 31.574468 " stroke="#2c3c28" stroke-width="1.5" stroke-opacity="1" stroke-miterlimit="10"/></g><g fill="#2c3c28" fill-opacity="1"><g transform="translate(44.349902, 25.703125)"><g><path d="M 1.0625 0 C 0.8125 0 0.6875 -0.117188 0.6875 -0.359375 L 0.6875 -2.5 C 0.6875 -2.6875 0.738281 -2.835938 0.84375 -2.953125 L 7.734375 -12.328125 C 7.765625 -12.367188 7.769531 -12.398438 7.75 -12.421875 C 7.738281 -12.453125 7.707031 -12.46875 7.65625 -12.46875 L 1.0625 -12.46875 C 0.8125 -12.46875 0.6875 -12.59375 0.6875 -12.84375 L 0.6875 -14.71875 C 0.6875 -14.957031 0.8125 -15.078125 1.0625 -15.078125 L 10.8125 -15.078125 C 11.0625 -15.078125 11.1875 -14.957031 11.1875 -14.71875 L 11.1875 -12.578125 C 11.1875 -12.390625 11.132812 -12.238281 11.03125 -12.125 L 4.140625 -2.765625 C 4.109375 -2.710938 4.097656 -2.671875 4.109375 -2.640625 C 4.128906 -2.617188 4.164062 -2.609375 4.21875 -2.609375 L 10.8125 -2.609375 C 11.0625 -2.609375 11.1875 -2.484375 11.1875 -2.234375 L 11.1875 -0.359375 C 11.1875 -0.117188 11.0625 0 10.8125 0 Z M 1.0625 0 "/></g></g></g><g fill="#2c3c28" fill-opacity="1"><g transform="translate(56.346471, 25.703125)"><g><path d="M 6.671875 0.234375 C 5.554688 0.234375 4.570312 0.00390625 3.71875 -0.453125 C 2.863281 -0.910156 2.195312 -1.550781 1.71875 -2.375 C 1.25 -3.207031 1.015625 -4.160156 1.015625 -5.234375 L 1.015625 -9.84375 C 1.015625 -10.90625 1.25 -11.84375 1.71875 -12.65625 C 2.195312 -13.476562 2.863281 -14.113281 3.71875 -14.5625 C 4.570312 -15.019531 5.554688 -15.25 6.671875 -15.25 C 7.804688 -15.25 8.800781 -15.019531 9.65625 -14.5625 C 10.519531 -14.113281 11.1875 -13.476562 11.65625 -12.65625 C 12.132812 -11.84375 12.375 -10.90625 12.375 -9.84375 L 12.375 -5.234375 C 12.375 -4.160156 12.132812 -3.207031 11.65625 -2.375 C 11.1875 -1.539062 10.519531 -0.894531 9.65625 -0.4375 C 8.800781 0.0078125 7.804688 0.234375 6.671875 0.234375 Z M 6.671875 -2.375 C 7.460938 -2.375 8.101562 -2.625 8.59375 -3.125 C 9.082031 -3.625 9.328125 -4.289062 9.328125 -5.125 L 9.328125 -9.875 C 9.328125 -10.707031 9.085938 -11.375 8.609375 -11.875 C 8.128906 -12.382812 7.484375 -12.640625 6.671875 -12.640625 C 5.890625 -12.640625 5.253906 -12.382812 4.765625 -11.875 C 4.285156 -11.375 4.046875 -10.707031 4.046875 -9.875 L 4.046875 -5.125 C 4.046875 -4.289062 4.285156 -3.625 4.765625 -3.125 C 5.253906 -2.625 5.890625 -2.375 6.671875 -2.375 Z M 6.671875 -2.375 "/></g></g></g><g fill="#2c3c28" fill-opacity="1"><g transform="translate(69.721461, 25.703125)"><g><path d="M 11.015625 0 C 10.804688 0 10.664062 -0.0976562 10.59375 -0.296875 L 10 -2.3125 C 9.976562 -2.375 9.9375 -2.40625 9.875 -2.40625 L 4.59375 -2.40625 C 4.519531 -2.40625 4.472656 -2.375 4.453125 -2.3125 L 3.859375 -0.296875 C 3.785156 -0.0976562 3.648438 0 3.453125 0 L 0.953125 0 C 0.816406 0 0.71875 -0.0351562 0.65625 -0.109375 C 0.601562 -0.191406 0.597656 -0.289062 0.640625 -0.40625 L 5.234375 -14.78125 C 5.304688 -14.976562 5.441406 -15.078125 5.640625 -15.078125 L 8.8125 -15.078125 C 9.007812 -15.078125 9.144531 -14.976562 9.21875 -14.78125 L 13.8125 -0.40625 C 13.820312 -0.375 13.828125 -0.332031 13.828125 -0.28125 C 13.828125 -0.195312 13.796875 -0.128906 13.734375 -0.078125 C 13.679688 -0.0234375 13.609375 0 13.515625 0 Z M 5.21875 -4.90625 C 5.195312 -4.8125 5.234375 -4.765625 5.328125 -4.765625 L 9.140625 -4.765625 C 9.222656 -4.765625 9.257812 -4.8125 9.25 -4.90625 L 7.296875 -11.484375 C 7.285156 -11.546875 7.257812 -11.578125 7.21875 -11.578125 C 7.1875 -11.578125 7.15625 -11.546875 7.125 -11.484375 Z M 5.21875 -4.90625 "/></g></g></g><g fill="#6da82d" fill-opacity="1"><g transform="translate(83.326715, 25.703125)"><g><path d="M 2.3125 0 C 2.125 0 2.03125 -0.09375 2.03125 -0.28125 L 2.03125 -14.796875 C 2.03125 -14.984375 2.125 -15.078125 2.3125 -15.078125 L 3.3125 -15.078125 C 3.445312 -15.078125 3.554688 -15.015625 3.640625 -14.890625 L 7.578125 -8.65625 C 7.628906 -8.570312 7.675781 -8.570312 7.71875 -8.65625 L 11.671875 -14.890625 C 11.765625 -15.015625 11.875 -15.078125 12 -15.078125 L 13.015625 -15.078125 C 13.203125 -15.078125 13.296875 -14.984375 13.296875 -14.796875 L 13.296875 -0.28125 C 13.296875 -0.09375 13.203125 0 13.015625 0 L 12.046875 0 C 11.859375 0 11.765625 -0.09375 11.765625 -0.28125 L 11.765625 -12.171875 C 11.765625 -12.234375 11.75 -12.265625 11.71875 -12.265625 C 11.6875 -12.265625 11.660156 -12.242188 11.640625 -12.203125 L 8.234375 -6.8125 C 8.148438 -6.675781 8.039062 -6.609375 7.90625 -6.609375 L 7.40625 -6.609375 C 7.28125 -6.609375 7.175781 -6.675781 7.09375 -6.8125 L 3.6875 -12.203125 C 3.65625 -12.242188 3.625 -12.265625 3.59375 -12.265625 C 3.570312 -12.265625 3.5625 -12.234375 3.5625 -12.171875 L 3.5625 -0.28125 C 3.5625 -0.09375 3.46875 0 3.28125 0 Z M 2.3125 0 "/></g></g></g><g fill="#6da82d" fill-opacity="1"><g transform="translate(97.563025, 25.703125)"><g><path d="M 11.015625 0 C 10.847656 0 10.742188 -0.078125 10.703125 -0.234375 L 9.84375 -2.859375 C 9.8125 -2.921875 9.773438 -2.953125 9.734375 -2.953125 L 3.3125 -2.953125 C 3.269531 -2.953125 3.234375 -2.921875 3.203125 -2.859375 L 2.375 -0.234375 C 2.332031 -0.078125 2.226562 0 2.0625 0 L 1.03125 0 C 0.9375 0 0.863281 -0.0234375 0.8125 -0.078125 C 0.769531 -0.140625 0.765625 -0.222656 0.796875 -0.328125 L 5.53125 -14.84375 C 5.582031 -15 5.6875 -15.078125 5.84375 -15.078125 L 7.21875 -15.078125 C 7.375 -15.078125 7.472656 -15 7.515625 -14.84375 L 12.28125 -0.328125 C 12.289062 -0.296875 12.296875 -0.257812 12.296875 -0.21875 C 12.296875 -0.15625 12.269531 -0.101562 12.21875 -0.0625 C 12.175781 -0.0195312 12.117188 0 12.046875 0 Z M 3.6875 -4.328125 C 3.664062 -4.242188 3.691406 -4.203125 3.765625 -4.203125 L 9.3125 -4.203125 C 9.394531 -4.203125 9.421875 -4.242188 9.390625 -4.328125 L 6.59375 -13.140625 C 6.582031 -13.203125 6.5625 -13.234375 6.53125 -13.234375 C 6.5 -13.234375 6.476562 -13.203125 6.46875 -13.140625 Z M 3.6875 -4.328125 "/></g></g></g><g fill="#6da82d" fill-opacity="1"><g transform="translate(109.559399, 25.703125)"><g><path d="M 10.875 0 C 10.71875 0 10.601562 -0.0703125 10.53125 -0.21875 L 7.390625 -6.859375 C 7.359375 -6.910156 7.316406 -6.9375 7.265625 -6.9375 L 3.65625 -6.9375 C 3.59375 -6.9375 3.5625 -6.898438 3.5625 -6.828125 L 3.5625 -0.28125 C 3.5625 -0.09375 3.46875 0 3.28125 0 L 2.3125 0 C 2.125 0 2.03125 -0.09375 2.03125 -0.28125 L 2.03125 -14.828125 C 2.03125 -15.015625 2.125 -15.109375 2.3125 -15.109375 L 7.828125 -15.109375 C 9.054688 -15.109375 10.050781 -14.726562 10.8125 -13.96875 C 11.570312 -13.207031 11.953125 -12.207031 11.953125 -10.96875 C 11.953125 -9.957031 11.679688 -9.101562 11.140625 -8.40625 C 10.609375 -7.71875 9.875 -7.265625 8.9375 -7.046875 C 8.863281 -7.035156 8.84375 -6.992188 8.875 -6.921875 L 12.09375 -0.328125 C 12.113281 -0.265625 12.125 -0.21875 12.125 -0.1875 C 12.125 -0.0625 12.039062 0 11.875 0 Z M 3.65625 -13.765625 C 3.59375 -13.765625 3.5625 -13.726562 3.5625 -13.65625 L 3.5625 -8.28125 C 3.5625 -8.207031 3.59375 -8.171875 3.65625 -8.171875 L 7.65625 -8.171875 C 8.488281 -8.171875 9.160156 -8.425781 9.671875 -8.9375 C 10.191406 -9.445312 10.453125 -10.117188 10.453125 -10.953125 C 10.453125 -11.785156 10.191406 -12.460938 9.671875 -12.984375 C 9.160156 -13.503906 8.488281 -13.765625 7.65625 -13.765625 Z M 3.65625 -13.765625 "/></g></g></g><g fill="#6da82d" fill-opacity="1"><g transform="translate(121.663473, 25.703125)"><g><path d="M 11.046875 -15.078125 C 11.234375 -15.078125 11.328125 -14.984375 11.328125 -14.796875 L 11.328125 -14 C 11.328125 -13.8125 11.234375 -13.71875 11.046875 -13.71875 L 6.921875 -13.71875 C 6.847656 -13.71875 6.8125 -13.6875 6.8125 -13.625 L 6.8125 -0.28125 C 6.8125 -0.09375 6.71875 0 6.53125 0 L 5.5625 0 C 5.375 0 5.28125 -0.09375 5.28125 -0.28125 L 5.28125 -13.625 C 5.28125 -13.6875 5.242188 -13.71875 5.171875 -13.71875 L 1.203125 -13.71875 C 1.015625 -13.71875 0.921875 -13.8125 0.921875 -14 L 0.921875 -14.796875 C 0.921875 -14.984375 1.015625 -15.078125 1.203125 -15.078125 Z M 11.046875 -15.078125 "/></g></g></g></svg>